<svg width="14" height="44" viewBox="0 0 14 44" fill="none" xmlns="http://www.w3.org/2000/svg">
<path d="M13.0729 17.6823C12.552 18.0012 12.1205 18.447 11.8189 18.9781C11.5172 19.5092 11.3552 20.1081 11.3481 20.7188C11.3501 21.4061 11.5538 22.0778 11.9338 22.6506C12.3138 23.2233 12.8535 23.672 13.486 23.9411C13.2366 24.7457 12.8675 25.5082 12.3912 26.2029C11.7096 27.1841 10.9969 28.1652 9.91248 28.1652C8.82808 28.1652 8.54918 27.5352 7.29948 27.5352C6.08078 27.5352 5.64698 28.1859 4.65548 28.1859C3.66398 28.1859 2.97208 27.277 2.17678 26.1616C1.12625 24.599 0.548887 22.7665 0.513977 20.884C0.513977 17.7856 2.52798 16.1435 4.51088 16.1435C5.56438 16.1435 6.44228 16.8354 7.10328 16.8354C7.73328 16.8354 8.71448 16.1021 9.91248 16.1021C10.5284 16.0862 11.1389 16.222 11.69 16.4976C12.2411 16.7731 12.716 17.18 13.0729 17.6823ZM9.34448 14.7905C9.87258 14.1692 10.1715 13.3856 10.1914 12.5705C10.1923 12.463 10.1819 12.3558 10.1604 12.2505C9.25323 12.3391 8.41438 12.7715 7.81588 13.4589C7.28268 14.0554 6.97248 14.8181 6.93798 15.6174C6.93838 15.7146 6.94877 15.8115 6.96898 15.9066C7.04049 15.9201 7.1131 15.927 7.18588 15.9273C7.60395 15.894 8.01089 15.7761 8.38197 15.5807C8.75305 15.3852 9.08052 15.1164 9.34448 14.7905Z" fill="white"/>
</svg> 


