<svg width="6" height="15" viewBox="0 0 6 15" fill="none" xmlns="http://www.w3.org/2000/svg">
<g clip-path="url(#clip0_4_815)">
<path d="M0.69635 11.1436C0.555074 11.1436 0.434306 11.0946 0.334045 10.9966C0.233785 10.8986 0.183655 10.779 0.183655 10.6377C0.183655 10.4964 0.236064 10.3734 0.340881 10.2686L3.1026 7.51367L0.340881 4.75879C0.236064 4.65397 0.183655 4.53092 0.183655 4.38965C0.183655 4.24837 0.233785 4.12874 0.334045 4.03076C0.434306 3.93278 0.555074 3.88379 0.69635 3.88379C0.828512 3.88379 0.947001 3.93164 1.05182 4.02734L4.16901 7.13086C4.27838 7.23112 4.33307 7.35872 4.33307 7.51367C4.33307 7.65951 4.27838 7.78711 4.16901 7.89648L1.05182 11C0.956116 11.0957 0.837626 11.1436 0.69635 11.1436Z" fill="#0066CC"/>
</g>
<defs>
<clipPath id="clip0_4_815">
<rect width="5.82" height="14" fill="white" transform="matrix(1 0 0 -1 0.179932 14.5)"/>
</clipPath>
</defs>
</svg>



